<svg width="71" height="84" viewBox="0 0 71 84" fill="none" xmlns="http://www.w3.org/2000/svg">
<path d="M35.0345 83.0476C30.1928 83.0476 25.6428 81.9695 21.3845 79.8132C17.1262 77.657 13.422 74.7307 10.272 71.0342C7.12198 67.3378 4.62824 62.9911 2.79074 57.9941C0.953235 52.997 0.0344849 47.6577 0.0344849 41.9762C0.0344849 36.2946 0.953235 30.9554 2.79074 25.9583C4.62824 20.9613 7.12198 16.6146 10.272 12.9182C13.422 9.22173 17.1262 6.29539 21.3845 4.13914C25.6428 1.98289 30.1928 0.904762 35.0345 0.904762C39.8762 0.904762 44.4262 1.98289 48.6845 4.13914C52.9428 6.29539 56.647 9.22173 59.797 12.9182C62.947 16.6146 65.4407 20.9613 67.2782 25.9583C69.1157 30.9554 70.0345 36.2946 70.0345 41.9762C70.0345 47.6577 69.1157 52.997 67.2782 57.9941C65.4407 62.9911 62.947 67.3378 59.797 71.0342C56.647 74.7307 52.9428 77.657 48.6845 79.8132C44.4262 81.9695 39.8762 83.0476 35.0345 83.0476ZM35.0345 74.8333C42.8512 74.8333 49.472 71.6503 54.897 65.2842C60.322 58.9182 63.0345 51.1488 63.0345 41.9762C63.0345 32.8036 60.322 25.0342 54.897 18.6682C49.472 12.3021 42.8512 9.11905 35.0345 9.11905C27.2178 9.11905 20.597 12.3021 15.172 18.6682C9.74699 25.0342 7.03449 32.8036 7.03449 41.9762C7.03449 51.1488 9.74699 58.9182 15.172 65.2842C20.597 71.6503 27.2178 74.8333 35.0345 74.8333Z" fill="#F01CF3"/>
</svg>
