<svg width="14" height="16" viewBox="0 0 14 16" fill="none" xmlns="http://www.w3.org/2000/svg">
<path d="M7 10V0" stroke="#F01CF3" stroke-width="5" stroke-linejoin="round"/>
<mask id="path-2-inside-1_6_12" fill="white">
<path d="M4.59613 14.1145L3.45417 12.8259C1.60396 10.7381 0.0780369 8.84707 0.5 8C0.921978 7.1528 2.96786 8 5.85792 8H8.14196C11.0322 8 13.0779 7.1528 13.5 8C13.9219 8.84707 12.3959 10.7381 10.5457 12.8259L9.40376 14.1144C8.28971 15.3715 7.73277 16 7.00002 16C6.26712 16 5.71018 15.3715 4.59613 14.1145Z"/>
</mask>
<path d="M4.59613 14.1145L3.45417 12.8259C1.60396 10.7381 0.0780369 8.84707 0.5 8C0.921978 7.1528 2.96786 8 5.85792 8H8.14196C11.0322 8 13.0779 7.1528 13.5 8C13.9219 8.84707 12.3959 10.7381 10.5457 12.8259L9.40376 14.1144C8.28971 15.3715 7.73277 16 7.00002 16C6.26712 16 5.71018 15.3715 4.59613 14.1145Z" stroke="#F01CF3" stroke-width="8" stroke-linecap="round" stroke-linejoin="round" mask="url(#path-2-inside-1_6_12)"/>
</svg>
