<svg width="15" height="17" viewBox="0 0 15 17" fill="none" xmlns="http://www.w3.org/2000/svg">
<path d="M7.54673 7V17" stroke="#F01CF3" stroke-width="5" stroke-linejoin="round"/>
<mask id="path-2-inside-1_6_6" fill="white">
<path d="M9.95061 2.12123L11.0926 3.57087C12.9428 5.91957 14.9687 8.04696 14.5467 9C14.1248 9.95304 11.5789 9 8.68866 9H6.40477C3.51459 9 0.468704 9.95304 0.0467251 9C-0.375239 8.04696 2.15068 5.91957 4.0009 3.57088L5.14282 2.12123C6.25687 0.70707 6.81397 0 7.54672 0C8.27947 0 8.83656 0.70707 9.95061 2.12123Z"/>
</mask>
<path d="M9.95061 2.12123L11.0926 3.57087C12.9428 5.91957 14.9687 8.04696 14.5467 9C14.1248 9.95304 11.5789 9 8.68866 9H6.40477C3.51459 9 0.468704 9.95304 0.0467251 9C-0.375239 8.04696 2.15068 5.91957 4.0009 3.57088L5.14282 2.12123C6.25687 0.70707 6.81397 0 7.54672 0C8.27947 0 8.83656 0.70707 9.95061 2.12123Z" stroke="#F01CF3" stroke-width="8" stroke-linecap="round" stroke-linejoin="round" mask="url(#path-2-inside-1_6_6)"/>
</svg>
