<svg width="32" height="44" viewBox="0 0 32 44" fill="none" xmlns="http://www.w3.org/2000/svg">
<path d="M16.125 0.854164L29.85 11.9354C30.3266 12.3116 30.6999 12.7904 30.9699 13.3719C31.24 13.9533 31.375 14.5689 31.375 15.2187L31.375 39.8437C31.375 40.9724 31.0017 41.9386 30.2551 42.7423C29.5085 43.546 28.6109 43.9479 27.5625 43.9479H4.6875C3.63906 43.9479 2.74154 43.546 1.99492 42.7423C1.24831 41.9386 0.875 40.9724 0.875 39.8437L0.875 15.2187C0.875 14.5689 1.01002 13.9533 1.28008 13.3719C1.55013 12.7904 1.92344 12.3116 2.4 11.9354L16.125 0.854164Z" fill="#FFFF00"/>
</svg>
