<svg width="44" height="31" viewBox="0 0 44 31" fill="none" xmlns="http://www.w3.org/2000/svg">
<path d="M43.6719 15.401L32.5906 29.126C32.2144 29.6026 31.7356 29.9759 31.1542 30.246C30.5727 30.516 29.9571 30.651 29.3073 30.651H4.68229C3.55365 30.651 2.58746 30.2777 1.78372 29.5311C0.979991 28.7845 0.578125 27.887 0.578125 26.8385L0.578125 3.96354C0.578125 2.9151 0.979991 2.01757 1.78372 1.27096C2.58746 0.524345 3.55365 0.151039 4.68229 0.151039H29.3073C29.9571 0.151039 30.5727 0.286064 31.1542 0.556116C31.7356 0.826168 32.2144 1.19948 32.5906 1.67604L43.6719 15.401Z" fill="#FFFF00"/>
</svg>
