<svg width="44" height="31" viewBox="0 0 44 31" fill="none" xmlns="http://www.w3.org/2000/svg">
<path d="M0.578125 15.401L11.6594 1.67604C12.0356 1.19948 12.5144 0.826169 13.0958 0.556117C13.6773 0.286065 14.2929 0.151039 14.9427 0.151039L39.5677 0.151039C40.6964 0.151039 41.6625 0.524346 42.4663 1.27096C43.27 2.01758 43.6719 2.9151 43.6719 3.96354L43.6719 26.8385C43.6719 27.887 43.27 28.7845 42.4663 29.5311C41.6625 30.2777 40.6964 30.651 39.5677 30.651L14.9427 30.651C14.2929 30.651 13.6773 30.516 13.0958 30.246C12.5144 29.9759 12.0356 29.6026 11.6594 29.126L0.578125 15.401Z" fill="#FFFF00"/>
</svg>
