<svg width="95" height="96" viewBox="0 0 95 96" fill="none" xmlns="http://www.w3.org/2000/svg">
<path d="M74.5527 73.9715C74.5527 79.1176 62.6035 83.2642 47.8711 83.2642C33.1387 83.2642 21.1895 79.0806 21.1895 73.9715C21.1895 68.8253 33.1387 64.6787 47.8711 64.6787C62.6035 64.6787 74.5527 68.8253 74.5527 73.9715Z" fill="#9EDCF2"/>
<mask id="mask0_9_74" style="mask-type:luminance" maskUnits="userSpaceOnUse" x="32" y="70" width="31" height="26">
<path d="M36.4043 90.6317C36.9981 93.4084 38.4453 95.0374 39.8926 96H55.1445C57 94.7412 58.8926 92.3718 58.8926 87.929V76.452C58.8926 76.452 59.1152 73.6012 61.75 72.6757C61.75 72.6757 63.2715 71.602 61.6387 71.0096C61.6387 71.0096 54.4024 70.4173 54.4024 76.3409V85.0783C54.4024 85.0783 54.6992 88.2993 52.9922 89.6321V78.8214C52.9922 78.8214 53.1035 75.3783 54.8848 74.0825C54.8848 74.0825 56.0723 71.9722 53.4746 72.5276C53.4746 72.5276 48.502 73.231 48.2793 79.0436L48.168 90.1504H46.9805L46.8691 79.0436C46.6465 73.268 41.6738 72.5276 41.6738 72.5276C39.0762 71.9352 40.2637 74.0825 40.2637 74.0825C42.0449 75.3783 42.1563 78.8214 42.1563 78.8214V89.7432C40.4492 88.5214 40.7461 85.0783 40.7461 85.0783V76.3409C40.7461 70.4173 33.5098 71.0096 33.5098 71.0096C31.8398 71.602 33.3984 72.6757 33.3984 72.6757C35.9961 73.6383 36.2559 76.452 36.2559 76.452V84.4859L36.4043 90.6317Z" fill="white"/>
</mask>
<g mask="url(#mask0_9_74)">
<path d="M74.5527 73.9715C74.5527 79.1176 62.6035 83.2642 47.8711 83.2642C33.1387 83.2642 21.1895 79.0806 21.1895 73.9715C21.1895 68.8253 33.1387 64.6788 47.8711 64.6788C62.6035 64.6788 74.5527 68.8253 74.5527 73.9715Z" fill="#7DBCE7"/>
</g>
<path d="M17.4043 46.6117L16.625 49.2773C16.625 49.2773 16.4395 50.2399 17.3301 50.425C18.2949 50.388 18.2207 49.4994 18.1465 49.2403L17.4043 46.6117Z" fill="#9EDCF2"/>
<path d="M94.9258 35.3939L95 35.0607C87.1699 33.5057 79.1543 33.4687 74.293 33.6908C75.0723 30.8401 75.332 27.508 75.332 23.8428C75.332 18.5485 73.3281 14.3279 70.1367 11.144C70.6934 9.32985 71.4355 5.29437 69.3945 0.148212C69.3945 0.148212 65.7578 -0.999493 57.4824 4.5169C54.2539 3.7024 50.8027 3.29515 47.3516 3.29515C43.5664 3.29515 39.7441 3.77644 36.1445 4.73903C27.6094 -1.07354 23.8613 0.111189 23.8613 0.111189C21.4121 6.21994 22.9336 10.7737 23.3789 11.8844C20.4844 14.9943 18.7402 18.9558 18.7402 23.8057C18.7402 27.471 19.1484 30.766 20.1875 33.6168C15.2891 33.4317 7.57031 33.5057 0 35.0236L0.0742188 35.3568C7.64453 33.8389 15.4375 33.8019 20.2988 33.987C20.5215 34.5794 20.7813 35.1717 21.041 35.7271C16.2168 35.8752 8.01563 36.5046 0.148438 38.7259L0.259766 39.0591C8.20117 36.8378 16.4766 36.2454 21.2637 36.0973C24.1582 41.4286 29.7988 44.9087 39.8926 45.9824C38.4453 46.945 36.998 48.574 36.4043 51.3507C34.4375 52.2762 28.2773 54.5717 24.5664 48.2037C24.5664 48.2037 22.4883 44.4274 18.5176 44.1312C18.5176 44.1312 14.6582 44.0572 18.2578 46.5377C18.2578 46.5377 20.8184 47.7595 22.5996 52.3133C22.5996 52.3133 24.9375 60.088 36.1074 57.5705V65.5304C36.1074 65.5304 35.8848 68.3811 33.25 69.3067C33.25 69.3067 31.6914 70.3804 33.3613 70.9727C33.3613 70.9727 40.5977 71.5651 40.5977 65.6415V56.9041C40.5977 56.9041 40.3008 53.424 42.0078 52.2392V66.6041C42.0078 66.6041 41.8965 70.0472 40.1152 71.343C40.1152 71.343 38.9277 73.4533 41.5254 72.8979C41.5254 72.8979 46.498 72.1945 46.7207 66.3819L46.832 51.832H48.0195L48.1309 66.3819C48.3535 72.1575 53.3262 72.8979 53.3262 72.8979C55.9238 73.4903 54.7363 71.343 54.7363 71.343C52.9551 70.0472 52.8437 66.6041 52.8437 66.6041V52.3503C54.5508 53.6831 54.2539 56.9041 54.2539 56.9041V65.6415C54.2539 71.5651 61.4902 70.9727 61.4902 70.9727C63.1602 70.3804 61.6016 69.3067 61.6016 69.3067C59.0039 68.3441 58.7441 65.5304 58.7441 65.5304V54.0533C58.7441 49.5736 56.8516 47.2041 54.9961 45.9824C65.7578 44.9087 70.916 41.4656 73.291 36.0603C78.0039 36.1713 86.502 36.7637 94.5918 39.0591L94.7031 38.7259C86.6504 36.4675 78.2266 35.8752 73.4395 35.7271C73.6621 35.1717 73.8477 34.6164 74.0332 34.024C79.0059 33.8389 87.0586 33.8389 94.9258 35.3939Z" fill="#010101"/>
<path d="M64.793 23.5835C67.0938 25.6938 68.4668 28.2113 68.4668 30.914C68.4668 43.6498 58.9668 43.983 47.2402 43.983C35.5137 43.983 26.0137 42.2059 26.0137 30.914C26.0137 28.2113 27.3496 25.6938 29.6504 23.6205C33.4727 20.1404 39.9297 21.9915 47.2402 21.9915C54.5508 21.9915 60.9707 20.1034 64.793 23.5835Z" fill="#F5CCB3"/>
<path d="M40.1895 31.5804C40.1895 35.0976 38.2227 37.9113 35.7734 37.9113C33.3242 37.9113 31.3574 35.0605 31.3574 31.5804C31.3574 28.0632 33.3242 25.2495 35.7734 25.2495C38.2227 25.2125 40.1895 28.0632 40.1895 31.5804Z" fill="white"/>
<path d="M38.7793 31.6545C38.7793 33.9869 37.4434 35.8751 35.8477 35.8751C34.2148 35.8751 32.916 33.9869 32.916 31.6545C32.916 29.322 34.252 27.4339 35.8477 27.4339C37.4434 27.4339 38.7793 29.322 38.7793 31.6545Z" fill="#AF5C51"/>
<path d="M63.9023 31.5804C63.9023 35.0976 61.9356 37.9113 59.4863 37.9113C57.0371 37.9113 55.0703 35.0605 55.0703 31.5804C55.0703 28.0632 57.0371 25.2495 59.4863 25.2495C61.8984 25.2125 63.9023 28.0632 63.9023 31.5804Z" fill="white"/>
<path d="M62.4551 31.6545C62.4551 33.9869 61.1191 35.875 59.5234 35.875C57.8906 35.875 56.5918 33.9869 56.5918 31.6545C56.5918 29.322 57.9277 27.4339 59.5234 27.4339C61.1562 27.4339 62.4551 29.322 62.4551 31.6545ZM48.4277 37.2079C48.4277 37.8002 47.9453 38.3186 47.3145 38.3186C46.7207 38.3186 46.2012 37.8373 46.2012 37.2079C46.2012 36.5785 46.6836 36.0972 47.3145 36.0972C47.9082 36.0972 48.4277 36.5785 48.4277 37.2079ZM44.7539 39.9846C44.6797 39.7995 44.791 39.6143 44.9766 39.5403C45.1621 39.4663 45.3477 39.5773 45.4219 39.7624C45.7188 40.5769 46.4609 41.0953 47.3145 41.0953C48.168 41.0953 48.9102 40.5399 49.207 39.7624C49.2813 39.5773 49.4668 39.4663 49.6523 39.5403C49.8379 39.6143 49.9492 39.7995 49.875 39.9846C49.5039 41.0582 48.4648 41.7987 47.3145 41.7987C46.1641 41.7987 45.125 41.0582 44.7539 39.9846Z" fill="#AF5C51"/>
<path d="M20.2246 45.0197C20.2246 45.3159 19.8906 45.538 19.4453 45.538C19.0371 45.538 18.666 45.3159 18.666 45.0197C18.666 44.7235 19 44.5014 19.4453 44.5014C19.8906 44.5014 20.2246 44.7235 20.2246 45.0197ZM22.377 46.2044C22.377 46.5006 22.043 46.7227 21.5977 46.7227C21.1895 46.7227 20.8184 46.5006 20.8184 46.2044C20.8184 45.9082 21.1523 45.6861 21.5977 45.6861C22.043 45.6861 22.377 45.9082 22.377 46.2044ZM23.6758 47.7594C23.6758 48.0555 23.3418 48.2777 22.8965 48.2777C22.4883 48.2777 22.1172 48.0555 22.1172 47.7594C22.1172 47.4632 22.4512 47.241 22.8965 47.241C23.3418 47.204 23.6758 47.4632 23.6758 47.7594ZM24.8633 49.5364C24.8633 49.8326 24.5293 50.0548 24.084 50.0548C23.6758 50.0548 23.3047 49.8326 23.3047 49.5364C23.3047 49.2403 23.6387 49.0181 24.084 49.0181C24.5293 48.9811 24.8633 49.2403 24.8633 49.5364ZM26.1621 51.1654C26.1621 51.4616 25.8281 51.6838 25.3828 51.6838C24.9746 51.6838 24.6035 51.4616 24.6035 51.1654C24.6035 50.8693 24.9375 50.6471 25.3828 50.6471C25.8281 50.6471 26.1621 50.8693 26.1621 51.1654ZM27.9434 52.6093C27.9434 52.9055 27.6094 53.1277 27.1641 53.1277C26.7559 53.1277 26.3848 52.9055 26.3848 52.6093C26.3848 52.3132 26.7187 52.091 27.1641 52.091C27.6094 52.054 27.9434 52.3132 27.9434 52.6093ZM30.4297 53.5349C30.4297 53.8311 30.0957 54.0532 29.6504 54.0532C29.2422 54.0532 28.8711 53.8311 28.8711 53.5349C28.8711 53.2387 29.2051 53.0166 29.6504 53.0166C30.0957 53.0166 30.4297 53.2387 30.4297 53.5349ZM32.916 53.5349C32.916 53.8311 32.582 54.0532 32.1367 54.0532C31.7285 54.0532 31.3574 53.8311 31.3574 53.5349C31.3574 53.2387 31.6914 53.0166 32.1367 53.0166C32.582 53.0166 32.916 53.2387 32.916 53.5349ZM35.4395 53.1277C35.4395 53.4238 35.1055 53.646 34.6602 53.646C34.252 53.646 33.8809 53.4238 33.8809 53.1277C33.8809 52.8315 34.2148 52.6093 34.6602 52.6093C35.0684 52.6093 35.4395 52.8315 35.4395 53.1277Z" fill="#C4E5D9"/>
</svg>
