<svg width="53" height="59" viewBox="0 0 53 59" fill="none" xmlns="http://www.w3.org/2000/svg">
<path d="M15.5139 15.3821C15.5139 16.6675 15.9725 17.9002 16.789 18.8091C17.6054 19.718 18.7128 20.2286 19.8674 20.2286C21.0221 20.2286 22.1294 19.718 22.9459 18.8091C23.7623 17.9002 24.221 16.6675 24.221 15.3821C24.221 14.0968 23.7623 12.8641 22.9459 11.9552C22.1294 11.0463 21.0221 10.5357 19.8674 10.5357C18.7128 10.5357 17.6054 11.0463 16.789 11.9552C15.9725 12.8641 15.5139 14.0968 15.5139 15.3821Z" stroke="black" stroke-width="2" stroke-linecap="round" stroke-linejoin="round"/>
<path d="M13.25 25.0329C13.9035 23.6099 14.8764 22.3992 16.0741 21.5181C17.2326 20.6753 18.5424 20.237 19.8712 20.237C21.2 20.237 22.5099 20.6753 23.6683 21.5181C24.8305 22.3568 25.7996 23.5663 26.4924 25.0329" stroke="black" stroke-width="2" stroke-linecap="round" stroke-linejoin="round"/>
<path d="M47.3214 52.6786C47.3214 53.7963 46.9226 54.8682 46.2126 55.6585C45.5027 56.4489 44.5397 56.8929 43.5357 56.8929H9.46429C8.46025 56.8929 7.49734 56.4489 6.78738 55.6585C6.07742 54.8682 5.67857 53.7963 5.67857 52.6786V6.32143C5.67857 5.20373 6.07742 4.13181 6.78738 3.34148C7.49734 2.55115 8.46025 2.10715 9.46429 2.10715H34.0714H41.321C44.0398 2.10715 46.2602 4.27948 46.3198 6.99754L47.3214 52.6786Z" stroke="black" stroke-width="2" stroke-linecap="round" stroke-linejoin="round"/>
<path d="M13.25 35.8214H39.75M13.25 46.3572H28.3929" stroke="black" stroke-width="2" stroke-linecap="round"/>
</svg>
